<?xml version="1.0" encoding="UTF-8"?>
<!DOCTYPE svg PUBLIC "-//W3C//DTD SVG 1.1//EN" "http://www.w3.org/Graphics/SVG/1.1/DTD/svg11.dtd">
<svg xmlns="http://www.w3.org/2000/svg" version="1.1" width="48px" height="48px" style="shape-rendering:geometricPrecision; text-rendering:geometricPrecision; image-rendering:optimizeQuality; fill-rule:evenodd; clip-rule:evenodd" xmlns:xlink="http://www.w3.org/1999/xlink">
<g><path style="opacity:0.974" fill="#fefffe" d="M 4.5,3.5 C 10.0934,3.19343 15.5934,3.52676 21,4.5C 21.8112,11.4143 21.6445,18.2476 20.5,25C 14.9162,25.8056 9.41625,25.6389 4,24.5C 3.20548,17.4197 3.37215,10.4197 4.5,3.5 Z"/></g>
<g><path style="opacity:0.959" fill="#fefffe" d="M 26.5,3.5 C 31.8437,3.33398 37.1771,3.50065 42.5,4C 43.6295,8.0785 43.7961,12.2452 43,16.5C 37.5838,17.6389 32.0838,17.8056 26.5,17C 25.1943,12.5006 25.1943,8.00059 26.5,3.5 Z"/></g>
<g><path style="opacity:0.974" fill="#fefffe" d="M 26.5,21.5 C 32.0934,21.1934 37.5934,21.5268 43,22.5C 43.8112,29.4143 43.6445,36.2476 42.5,43C 36.9162,43.8056 31.4162,43.6389 26,42.5C 25.2055,35.4197 25.3722,28.4197 26.5,21.5 Z"/></g>
<g><path style="opacity:0.959" fill="#fefffe" d="M 4.5,29.5 C 9.84372,29.334 15.1771,29.5006 20.5,30C 21.6295,34.0785 21.7961,38.2452 21,42.5C 15.5838,43.6389 10.0838,43.8056 4.5,43C 3.19435,38.5006 3.19435,34.0006 4.5,29.5 Z"/></g>
</svg>
