<?xml version="1.0" encoding="UTF-8"?>
<svg version="1.1" xmlns="http://www.w3.org/2000/svg" width="48" height="48">
<path d="M0 0 C4.68796317 2.8950501 8.77605467 6.42344712 10.234375 11.89453125 C11.16656452 18.74158704 11.3930195 24.99387098 7.671875 31.01953125 C3.66347868 35.99068326 0.31000422 38.47580101 -6.0078125 39.3359375 C-13.13117965 39.69593562 -18.32226847 39.1760845 -23.98828125 34.66015625 C-28.12297517 30.55272405 -29.96908525 26.89550357 -30.015625 20.95703125 C-29.95227449 19.60178274 -29.87601114 18.24676152 -29.765625 16.89453125 C-28.445625 16.89453125 -27.125625 16.89453125 -25.765625 16.89453125 C-25.53488281 17.6421875 -25.30414062 18.38984375 -25.06640625 19.16015625 C-22.65052101 26.76528774 -22.65052101 26.76528774 -16.765625 31.89453125 C-13.05326086 33.75071332 -8.81719412 33.34263106 -4.765625 32.89453125 C-0.35953757 30.73154288 2.4331247 28.49772646 4.234375 23.89453125 C4.91863557 18.85127741 4.8083612 15.06376241 2.546875 10.45703125 C-0.49920539 7.08164487 -2.51675329 5.12490347 -7.16796875 4.6484375 C-11.64065891 4.53678444 -14.82822973 4.61211506 -18.765625 6.89453125 C-18.105625 7.22453125 -17.445625 7.55453125 -16.765625 7.89453125 C-16.765625 9.21453125 -16.765625 10.53453125 -16.765625 11.89453125 C-20.395625 11.89453125 -24.025625 11.89453125 -27.765625 11.89453125 C-27.765625 8.26453125 -27.765625 4.63453125 -27.765625 0.89453125 C-26.445625 0.89453125 -25.125625 0.89453125 -23.765625 0.89453125 C-23.765625 1.55453125 -23.765625 2.21453125 -23.765625 2.89453125 C-22.899375 2.23453125 -22.033125 1.57453125 -21.140625 0.89453125 C-14.86451932 -2.65172359 -6.61120475 -2.64261433 0 0 Z " fill="#FFFFFF" transform="translate(33.765625,5.10546875)"/>
<path d="M0 0 C1.32 0 2.64 0 4 0 C4 3.63 4 7.26 4 11 C6.31 11 8.62 11 11 11 C11 12.32 11 13.64 11 15 C7.37 15 3.74 15 0 15 C0 10.05 0 5.1 0 0 Z " fill="#FFFFFF" transform="translate(22,13)"/>
</svg>
