<?xml version="1.0" encoding="UTF-8"?>
<!DOCTYPE svg PUBLIC "-//W3C//DTD SVG 1.1//EN" "http://www.w3.org/Graphics/SVG/1.1/DTD/svg11.dtd">
<svg xmlns="http://www.w3.org/2000/svg" version="1.1" width="48px" height="48px" style="shape-rendering:geometricPrecision; text-rendering:geometricPrecision; image-rendering:optimizeQuality; fill-rule:evenodd; clip-rule:evenodd" xmlns:xlink="http://www.w3.org/1999/xlink">
<g><path style="opacity:0.959" fill="#fefffe" d="M 21.5,3.5 C 24.2257,3.26386 26.559,4.09719 28.5,6C 34,10.8333 39.5,15.6667 45,20.5C 45.4828,21.448 45.6495,22.448 45.5,23.5C 43.5,23.5 41.5,23.5 39.5,23.5C 39.5,29.5 39.5,35.5 39.5,41.5C 35.5,41.5 31.5,41.5 27.5,41.5C 27.5,36.8333 27.5,32.1667 27.5,27.5C 24.8333,27.5 22.1667,27.5 19.5,27.5C 19.5,32.1667 19.5,36.8333 19.5,41.5C 15.5,41.5 11.5,41.5 7.5,41.5C 7.5,35.5 7.5,29.5 7.5,23.5C 5.5,23.5 3.5,23.5 1.5,23.5C 1.35055,22.448 1.51722,21.448 2,20.5C 8.85267,15.1696 15.3527,9.50289 21.5,3.5 Z"/></g>
</svg>
