<?xml version="1.0" encoding="UTF-8"?>
<svg version="1.1" xmlns="http://www.w3.org/2000/svg" width="50" height="50">
<path d="M0 0 C14.52 0 29.04 0 44 0 C44 9.9 44 19.8 44 30 C29.48 30 14.96 30 0 30 C0 20.1 0 10.2 0 0 Z M2 2 C5.49907064 6.3738383 8.63956991 9.45114842 12.9375 12.875 C13.84918945 13.64070313 13.84918945 13.64070313 14.77929688 14.421875 C18.29421396 17.29010712 18.29421396 17.29010712 22.63671875 18.05078125 C25.44938287 16.80019175 27.51520182 15.29156397 29.875 13.3125 C30.73609375 12.59578125 31.5971875 11.8790625 32.484375 11.140625 C33.72960938 10.08101562 33.72960938 10.08101562 35 9 C35.72703125 8.39671875 36.4540625 7.7934375 37.203125 7.171875 C38.82779566 5.81137843 40.41807767 4.40997425 42 3 C42 2.67 42 2.34 42 2 C28.8 2 15.6 2 2 2 Z M2 8 C2 12.95 2 17.9 2 23 C4.2275 21.6078125 4.2275 21.6078125 6.5 20.1875 C7.3353125 19.66542969 8.170625 19.14335938 9.03125 18.60546875 C9.6809375 18.07566406 10.330625 17.54585937 11 17 C11.3365155 14.0080265 11.3365155 14.0080265 9.5390625 12.39453125 C8.90742188 11.87246094 8.27578125 11.35039062 7.625 10.8125 C6.99851562 10.28269531 6.37203125 9.75289062 5.7265625 9.20703125 C4.07791367 7.80901185 4.07791367 7.80901185 2 8 Z M35.875 11.5 C35.15054688 12.1496875 34.42609375 12.799375 33.6796875 13.46875 C33.12539063 13.9740625 32.57109375 14.479375 32 15 C35.24744993 18.43301849 37.85945868 20.51567521 42 23 C42 18.05 42 13.1 42 8 C39.05645643 8 38.02421163 9.55877659 35.875 11.5 Z M7.3125 22.4375 C6.31863281 23.26121094 5.32476562 24.08492187 4.30078125 24.93359375 C3.54152344 25.61550781 2.78226563 26.29742187 2 27 C2 27.33 2 27.66 2 28 C15.2 28 28.4 28 42 28 C36.74400578 22.67017811 36.74400578 22.67017811 31 18 C28.64439872 18.1273298 27.65621618 18.34378382 26 20 C20.26388889 20.27314815 20.26388889 20.27314815 18 20 C17.34 19.34 16.68 18.68 16 18 C11.83878671 18 10.46553396 19.79554605 7.3125 22.4375 Z " fill="#FFFFFF" transform="translate(6,13)"/>
<path d="M0 0 C14.52 0 29.04 0 44 0 C44 1.65 44 3.3 44 5 C43.34 5 42.68 5 42 5 C42 4.01 42 3.02 42 2 C28.8 2 15.6 2 2 2 C2 10.58 2 19.16 2 28 C2.99 28 3.98 28 5 28 C5 28.66 5 29.32 5 30 C3.35 30 1.7 30 0 30 C0 20.1 0 10.2 0 0 Z " fill="#FFFFFF" transform="translate(0,7)"/>
</svg>
