<?xml version="1.0" encoding="UTF-8"?>
<svg version="1.1" xmlns="http://www.w3.org/2000/svg" width="48" height="48">
<path d="M0 0 C1.95970173 0.93742433 3.88046015 1.90564972 5.77734375 2.96484375 C8.75720526 4.35265271 11.83090799 5.14956977 15 6 C15.14723105 9.31201908 15.23469907 12.62318059 15.3125 15.9375 C15.35439453 16.86369141 15.39628906 17.78988281 15.43945312 18.74414062 C15.56112072 25.67919374 14.17258077 30.41686666 10 36 C7.61328125 38.375 7.61328125 38.375 5.3125 40 C4.54550781 40.556875 3.77851563 41.11375 2.98828125 41.6875 C-0.59800296 44.05487032 -2.66190908 44.55212066 -7 44 C-14.55979489 40.09563453 -19.81680152 34.95358734 -23 27 C-23.35720434 23.36577128 -23.28386774 19.77214822 -23.1875 16.125 C-23.17396484 15.15046875 -23.16042969 14.1759375 -23.14648438 13.171875 C-23.11131962 10.78067137 -23.0621067 8.39063025 -23 6 C-21.94941406 5.72542969 -20.89882813 5.45085938 -19.81640625 5.16796875 C-16.50412067 4.15428053 -13.92610207 3.00847093 -10.9375 1.3125 C-6.79289779 -0.80043446 -4.53854574 -1.67728864 0 0 Z M-9 13 C-9.33333333 16 -9.33333333 16 -9 19 C-7.13287971 21.27208703 -7.13287971 21.27208703 -4.1875 21.375 C-0.33694545 20.92199358 1.21801758 19.6183364 4 17 C2.63016497 13.83884224 2.0109362 13.0072908 -1 11 C-5.51019363 10.48713888 -5.51019363 10.48713888 -9 13 Z M-14 27 C-14.33 28.98 -14.66 30.96 -15 33 C-13.75627811 33.98712878 -12.50472782 34.96439905 -11.25 35.9375 C-10.55390625 36.48277344 -9.8578125 37.02804688 -9.140625 37.58984375 C-6.94001316 39.03951688 -5.62597215 39.81785164 -3 40 C-0.59532853 38.96629846 -0.59532853 38.96629846 1.6875 37.3125 C2.47511719 36.79300781 3.26273438 36.27351563 4.07421875 35.73828125 C6.23066285 33.79179519 6.75709043 32.86407331 7 30 C6.67 29.01 6.34 28.02 6 27 C2.49904689 25.83301563 -0.3122232 25.86731713 -4 25.875 C-5.2375 25.87242188 -6.475 25.86984375 -7.75 25.8671875 C-11.01230773 25.85008698 -11.01230773 25.85008698 -14 27 Z " fill="#FFFFFF" transform="translate(28,3)"/>
</svg>
