<?xml version="1.0" encoding="UTF-8"?>
<svg version="1.1" xmlns="http://www.w3.org/2000/svg" width="48" height="48">
<path d="M0 0 C4.68796317 2.8950501 8.77605467 6.42344712 10.234375 11.89453125 C11.16656452 18.74158704 11.3930195 24.99387098 7.671875 31.01953125 C3.66347868 35.99068326 0.31000422 38.47580101 -6.0078125 39.3359375 C-13.1275177 39.69575056 -18.34453314 39.19135672 -23.98828125 34.640625 C-29.08369757 29.63479842 -30.03494232 26.05750776 -30.390625 19.01953125 C-30.17838344 12.13997715 -28.58962241 7.80486419 -23.765625 2.89453125 C-17.29271618 -2.6344117 -7.84970384 -3.13766411 0 0 Z M-13.765625 9.89453125 C-13.93229167 12.89453125 -13.93229167 12.89453125 -13.765625 15.89453125 C-12.64726276 17.238579 -12.64726276 17.238579 -9.765625 17.01953125 C-6.88398724 17.238579 -6.88398724 17.238579 -5.765625 15.89453125 C-5.59895833 12.89453125 -5.59895833 12.89453125 -5.765625 9.89453125 C-6.88398724 8.5504835 -6.88398724 8.5504835 -9.765625 8.76953125 C-12.64726276 8.5504835 -12.64726276 8.5504835 -13.765625 9.89453125 Z M-16.765625 21.89453125 C-17.095625 23.54453125 -17.425625 25.19453125 -17.765625 26.89453125 C-14.52648271 29.05395944 -13.51702767 29.16686103 -9.765625 29.14453125 C-8.46625 29.15226562 -8.46625 29.15226562 -7.140625 29.16015625 C-4.49983 29.04867677 -4.49983 29.04867677 -1.765625 26.89453125 C-2.095625 25.24453125 -2.425625 23.59453125 -2.765625 21.89453125 C-7.385625 21.89453125 -12.005625 21.89453125 -16.765625 21.89453125 Z " fill="#FFFFFF" transform="translate(33.765625,5.10546875)"/>
</svg>
