<?xml version="1.0" encoding="UTF-8"?>
<svg version="1.1" xmlns="http://www.w3.org/2000/svg" width="48" height="48">
<path d="M0 0 C3.3 0 6.6 0 10 0 C10.99 2.31 11.98 4.62 13 7 C15.64 6.67 18.28 6.34 21 6 C22.32 8.64 23.64 11.28 25 14 C23.625 16 23.625 16 22 18 C21.34 18 20.68 18 20 18 C20 19.32 20 20.64 20 22 C20.639375 22.28875 21.27875 22.5775 21.9375 22.875 C24 24 24 24 25 26 C23.88536076 28.78939871 22.41371466 31.34393004 21 34 C17.7 33.67 14.4 33.34 11 33 C11.020625 33.969375 11.04125 34.93875 11.0625 35.9375 C11 39 11 39 10 40 C8.31391034 40.07205511 6.62499341 40.08386068 4.9375 40.0625 C4.01839844 40.05347656 3.09929688 40.04445312 2.15234375 40.03515625 C1.44207031 40.02355469 0.73179688 40.01195312 0 40 C-1.485 36.535 -1.485 36.535 -3 33 C-5.64 33.33 -8.28 33.66 -11 34 C-12.32 31.36 -13.64 28.72 -15 26 C-13.625 24 -13.625 24 -12 22 C-11.34 22 -10.68 22 -10 22 C-10 20.68 -10 19.36 -10 18 C-10.639375 17.71125 -11.27875 17.4225 -11.9375 17.125 C-14 16 -14 16 -15 14 C-14.22265625 12.0546875 -14.22265625 12.0546875 -13.0625 9.875 C-12.49208984 8.78832031 -12.49208984 8.78832031 -11.91015625 7.6796875 C-11.60980469 7.12539062 -11.30945313 6.57109375 -11 6 C-8.36 6.33 -5.72 6.66 -3 7 C-2.01 4.69 -1.02 2.38 0 0 Z M0.125 15.125 C-1.52854531 17.88090884 -1.39365568 19.85075452 -1 23 C0 25 0 25 2 26 C5.14924548 26.39365568 7.11909116 26.52854531 9.875 24.875 C11.52854531 22.11909116 11.39365568 20.14924548 11 17 C10 15 10 15 8 14 C4.85075452 13.60634432 2.88090884 13.47145469 0.125 15.125 Z " fill="#FFFFFF" transform="translate(19,4)"/>
</svg>
