<?xml version="1.0" encoding="UTF-8"?>
<svg version="1.1" xmlns="http://www.w3.org/2000/svg" width="48" height="48">
<path d="M0 0 C1.30066406 -0.00128906 2.60132813 -0.00257812 3.94140625 -0.00390625 C4.96258545 -0.00076416 4.96258545 -0.00076416 6.00439453 0.00244141 C8.08503515 0.0077901 10.16545989 0.0024957 12.24609375 -0.00390625 C14.19708984 -0.00197266 14.19708984 -0.00197266 16.1875 0 C17.39083984 0.00112793 18.59417969 0.00225586 19.83398438 0.00341797 C22.59375 0.1328125 22.59375 0.1328125 23.59375 1.1328125 C24.09566698 4.2078482 24.16224597 7.06606359 23.59375 10.1328125 C21.46411519 12.93737773 18.73475331 14.56231085 15.59375 16.1328125 C13.18125308 16.30884397 10.76224105 16.40026218 8.34375 16.4453125 C7.03921875 16.48269531 5.7346875 16.52007812 4.390625 16.55859375 C-0.82216439 15.97403198 -3.76105616 13.77800634 -7.40625 10.1328125 C-7.63671875 8.00390625 -7.63671875 8.00390625 -7.59375 5.5703125 C-7.58730469 4.76464844 -7.58085938 3.95898438 -7.57421875 3.12890625 C-7.20483636 -1.26073097 -3.66322114 0.00343366 0 0 Z " fill="#FFFFFF" transform="translate(11.40625,27.8671875)"/>
<path d="M0 0 C3.87686179 2.11523637 6.89535188 4.89535188 10 8 C10.0625 10.25 10.0625 10.25 9 13 C4.81278911 17.35469933 1.31471608 20.13615799 -4.8125 20.375 C-8.52057752 20.31060502 -9.85127184 20.0892369 -13.125 18.125 C-15.7769173 13.70513784 -15.98876625 10.02622846 -15 5 C-11.46773689 -0.88710518 -6.32221066 -1.39107822 0 0 Z " fill="#FFFFFF" transform="translate(24,4)"/>
<path d="M0 0 C1.9375 1.0625 1.9375 1.0625 3 3 C3.4375 6.4375 3.4375 6.4375 3 10 C1.125 12.1875 1.125 12.1875 -1 14 C-2.23512079 16.13309192 -2.23512079 16.13309192 -3 18 C-3.99 18 -4.98 18 -6 18 C-5.32975871 10.89544236 -5.32975871 10.89544236 -2 8 C-2 7.01 -2 6.02 -2 5 C-2.99 5 -3.98 5 -5 5 C-5.99 6.485 -5.99 6.485 -7 8 C-7.99 8 -8.98 8 -10 8 C-9.74438677 5.6568787 -9.40729228 3.32156597 -9 1 C-5.95016004 -0.52491998 -3.3576631 -0.23562548 0 0 Z " fill="#FFFFFF" transform="translate(43,2)"/>
<path d="M0 0 C1.65 0 3.3 0 5 0 C5 1.65 5 3.3 5 5 C3.35 5 1.7 5 0 5 C0 3.35 0 1.7 0 0 Z " fill="#FFFFFF" transform="translate(36,22)"/>
</svg>
