<?xml version="1.0" encoding="UTF-8"?>
<svg version="1.1" xmlns="http://www.w3.org/2000/svg" width="48" height="48">
<path d="M0 0 C4.62 0 9.24 0 14 0 C14.33 1.32 14.66 2.64 15 4 C16.134375 3.979375 17.26875 3.95875 18.4375 3.9375 C22 4 22 4 23 5 C23.10087212 7.50924153 23.13972032 9.99036384 23.1328125 12.5 C23.13376923 13.25087891 23.13472595 14.00175781 23.13571167 14.77539062 C23.13639338 16.36588627 23.13453972 17.95638467 23.13037109 19.546875 C23.12502267 21.98964655 23.13031634 24.43223421 23.13671875 26.875 C23.13605797 28.41666707 23.1347768 29.95833403 23.1328125 31.5 C23.13483673 32.23541016 23.13686096 32.97082031 23.13894653 33.72851562 C23.11495161 38.88504839 23.11495161 38.88504839 22 40 C19.79349344 40.10012401 17.58377614 40.1308118 15.375 40.1328125 C14.71290527 40.13376923 14.05081055 40.13472595 13.36865234 40.13571167 C11.96647039 40.13639326 10.5642853 40.13454042 9.16210938 40.13037109 C7.00904287 40.12502246 4.85618498 40.1303167 2.703125 40.13671875 C1.34374954 40.13605796 -0.0156258 40.13477679 -1.375 40.1328125 C-2.62023437 40.13168457 -3.86546875 40.13055664 -5.1484375 40.12939453 C-8 40 -8 40 -9 39 C-9.10087212 36.49075847 -9.13972032 34.00963616 -9.1328125 31.5 C-9.13376923 30.74912109 -9.13472595 29.99824219 -9.13571167 29.22460938 C-9.13639338 27.63411373 -9.13453972 26.04361533 -9.13037109 24.453125 C-9.12502267 22.01035345 -9.13031634 19.56776579 -9.13671875 17.125 C-9.13605797 15.58333293 -9.1347768 14.04166597 -9.1328125 12.5 C-9.13483673 11.76458984 -9.13686096 11.02917969 -9.13894653 10.27148438 C-9.11495161 5.11495161 -9.11495161 5.11495161 -8 4 C-5.66702567 3.95907063 -3.33294775 3.95758277 -1 4 C-0.67 2.68 -0.34 1.36 0 0 Z M4 3 C4 3.99 4 4.98 4 6 C5.98 6 7.96 6 10 6 C10 5.01 10 4.02 10 3 C8.02 3 6.04 3 4 3 Z M2.671875 21.8203125 C0.61377764 24.50353289 0 26.62442154 0 30 C5.84768271 30 8.52425374 27.06608809 12.4609375 23.203125 C14.29360831 20.57970791 14.31768836 19.1330645 14 16 C8.31799756 15.4238529 6.394033 17.88825837 2.671875 21.8203125 Z " fill="#FFFFFF" transform="translate(17,3)"/>
</svg>
